<mxfile host="app.diagrams.net" modified="2023-08-30T15:30:41.380Z" agent="Mozilla/5.0 (Windows NT 10.0; Win64; x64) AppleWebKit/537.36 (KHTML, like Gecko) Chrome/116.0.0.0 Safari/537.36" etag="hmg-kZ_7Q7W6XItjJTOb" version="21.7.1" type="device">
  <diagram name="Page-1" id="ac07JLPC3SwHZqdtZT05">
    <mxGraphModel dx="1134" dy="663" grid="1" gridSize="10" guides="1" tooltips="1" connect="1" arrows="1" fold="1" page="1" pageScale="1" pageWidth="827" pageHeight="1169" math="0" shadow="0">
      <root>
        <mxCell id="0" />
        <mxCell id="1" parent="0" />
        <mxCell id="E1bleXBWYbin3MfH68Ox-62" value="" style="rounded=0;whiteSpace=wrap;html=1;" vertex="1" parent="1">
          <mxGeometry x="510" y="155" width="450" height="300" as="geometry" />
        </mxCell>
        <mxCell id="E1bleXBWYbin3MfH68Ox-3" value="" style="rounded=1;whiteSpace=wrap;html=1;" vertex="1" parent="1">
          <mxGeometry x="135" y="240" width="180" height="100" as="geometry" />
        </mxCell>
        <mxCell id="E1bleXBWYbin3MfH68Ox-6" value="Riddle/Puzzle" style="text;html=1;align=center;verticalAlign=middle;resizable=0;points=[];autosize=1;strokeColor=none;fillColor=none;fontStyle=1" vertex="1" parent="1">
          <mxGeometry x="175" y="310" width="100" height="30" as="geometry" />
        </mxCell>
        <mxCell id="E1bleXBWYbin3MfH68Ox-20" style="edgeStyle=orthogonalEdgeStyle;rounded=0;orthogonalLoop=1;jettySize=auto;html=1;exitX=0.5;exitY=1;exitDx=0;exitDy=0;entryX=1;entryY=0.5;entryDx=0;entryDy=0;" edge="1" parent="1" source="E1bleXBWYbin3MfH68Ox-3" target="E1bleXBWYbin3MfH68Ox-2">
          <mxGeometry relative="1" as="geometry">
            <Array as="points">
              <mxPoint x="225" y="380" />
              <mxPoint x="400" y="380" />
              <mxPoint x="400" y="175" />
            </Array>
          </mxGeometry>
        </mxCell>
        <mxCell id="E1bleXBWYbin3MfH68Ox-4" value="Description" style="text;html=1;align=center;verticalAlign=middle;resizable=0;points=[];autosize=1;strokeColor=none;fillColor=none;fontStyle=1" vertex="1" parent="1">
          <mxGeometry x="180" y="240" width="90" height="30" as="geometry" />
        </mxCell>
        <mxCell id="E1bleXBWYbin3MfH68Ox-2" value="&lt;b&gt;Player&lt;/b&gt;" style="rounded=1;whiteSpace=wrap;html=1;" vertex="1" parent="1">
          <mxGeometry x="180" y="150" width="90" height="50" as="geometry" />
        </mxCell>
        <mxCell id="E1bleXBWYbin3MfH68Ox-5" value="Combat" style="text;html=1;align=center;verticalAlign=middle;resizable=0;points=[];autosize=1;strokeColor=none;fillColor=none;fontStyle=1" vertex="1" parent="1">
          <mxGeometry x="190" y="275" width="70" height="30" as="geometry" />
        </mxCell>
        <mxCell id="E1bleXBWYbin3MfH68Ox-7" value="" style="endArrow=none;html=1;rounded=0;exitX=0;exitY=0.25;exitDx=0;exitDy=0;entryX=1;entryY=0.25;entryDx=0;entryDy=0;" edge="1" parent="1">
          <mxGeometry width="50" height="50" relative="1" as="geometry">
            <mxPoint x="135" y="275" as="sourcePoint" />
            <mxPoint x="315" y="275" as="targetPoint" />
          </mxGeometry>
        </mxCell>
        <mxCell id="E1bleXBWYbin3MfH68Ox-8" value="" style="endArrow=none;html=1;rounded=0;exitX=0;exitY=0.5;exitDx=0;exitDy=0;entryX=1;entryY=0.5;entryDx=0;entryDy=0;" edge="1" parent="1">
          <mxGeometry width="50" height="50" relative="1" as="geometry">
            <mxPoint x="135" y="310" as="sourcePoint" />
            <mxPoint x="315" y="310" as="targetPoint" />
          </mxGeometry>
        </mxCell>
        <mxCell id="E1bleXBWYbin3MfH68Ox-12" value="" style="endArrow=none;html=1;rounded=0;entryX=0.5;entryY=1;entryDx=0;entryDy=0;exitX=0.25;exitY=0;exitDx=0;exitDy=0;" edge="1" parent="1" source="E1bleXBWYbin3MfH68Ox-3" target="E1bleXBWYbin3MfH68Ox-2">
          <mxGeometry width="50" height="50" relative="1" as="geometry">
            <mxPoint x="340" y="300" as="sourcePoint" />
            <mxPoint x="390" y="250" as="targetPoint" />
          </mxGeometry>
        </mxCell>
        <mxCell id="E1bleXBWYbin3MfH68Ox-15" value="" style="endArrow=none;html=1;rounded=0;exitX=0.5;exitY=0;exitDx=0;exitDy=0;entryX=0.5;entryY=1;entryDx=0;entryDy=0;" edge="1" parent="1" source="E1bleXBWYbin3MfH68Ox-3" target="E1bleXBWYbin3MfH68Ox-2">
          <mxGeometry width="50" height="50" relative="1" as="geometry">
            <mxPoint x="330" y="220" as="sourcePoint" />
            <mxPoint x="390" y="250" as="targetPoint" />
          </mxGeometry>
        </mxCell>
        <mxCell id="E1bleXBWYbin3MfH68Ox-16" value="" style="endArrow=none;html=1;rounded=0;entryX=0.5;entryY=1;entryDx=0;entryDy=0;exitX=0.75;exitY=0;exitDx=0;exitDy=0;" edge="1" parent="1" source="E1bleXBWYbin3MfH68Ox-3" target="E1bleXBWYbin3MfH68Ox-2">
          <mxGeometry width="50" height="50" relative="1" as="geometry">
            <mxPoint x="340" y="300" as="sourcePoint" />
            <mxPoint x="390" y="250" as="targetPoint" />
          </mxGeometry>
        </mxCell>
        <mxCell id="E1bleXBWYbin3MfH68Ox-17" value="Choices" style="text;html=1;align=center;verticalAlign=middle;resizable=0;points=[];autosize=1;strokeColor=none;fillColor=none;fontStyle=1" vertex="1" parent="1">
          <mxGeometry x="260" y="200" width="70" height="30" as="geometry" />
        </mxCell>
        <mxCell id="E1bleXBWYbin3MfH68Ox-29" style="edgeStyle=orthogonalEdgeStyle;rounded=0;orthogonalLoop=1;jettySize=auto;html=1;exitX=1;exitY=0.5;exitDx=0;exitDy=0;entryX=0;entryY=0.5;entryDx=0;entryDy=0;" edge="1" parent="1" source="E1bleXBWYbin3MfH68Ox-18" target="E1bleXBWYbin3MfH68Ox-26">
          <mxGeometry relative="1" as="geometry" />
        </mxCell>
        <mxCell id="E1bleXBWYbin3MfH68Ox-30" style="edgeStyle=orthogonalEdgeStyle;rounded=0;orthogonalLoop=1;jettySize=auto;html=1;exitX=1;exitY=0.5;exitDx=0;exitDy=0;entryX=0;entryY=0.5;entryDx=0;entryDy=0;" edge="1" parent="1" source="E1bleXBWYbin3MfH68Ox-18" target="E1bleXBWYbin3MfH68Ox-27">
          <mxGeometry relative="1" as="geometry" />
        </mxCell>
        <mxCell id="E1bleXBWYbin3MfH68Ox-31" style="edgeStyle=orthogonalEdgeStyle;rounded=0;orthogonalLoop=1;jettySize=auto;html=1;exitX=1;exitY=0.5;exitDx=0;exitDy=0;entryX=0;entryY=0.5;entryDx=0;entryDy=0;" edge="1" parent="1" source="E1bleXBWYbin3MfH68Ox-18" target="E1bleXBWYbin3MfH68Ox-28">
          <mxGeometry relative="1" as="geometry" />
        </mxCell>
        <mxCell id="E1bleXBWYbin3MfH68Ox-18" value="&lt;b&gt;&lt;font style=&quot;font-size: 15px;&quot;&gt;Feature 1&lt;/font&gt;&lt;/b&gt;" style="rounded=1;whiteSpace=wrap;html=1;" vertex="1" parent="1">
          <mxGeometry x="550" y="275" width="120" height="60" as="geometry" />
        </mxCell>
        <mxCell id="E1bleXBWYbin3MfH68Ox-19" value="Feature n" style="text;html=1;align=center;verticalAlign=middle;resizable=0;points=[];autosize=1;strokeColor=none;fillColor=none;fontStyle=1;rotation=90;fontSize=14;" vertex="1" parent="1">
          <mxGeometry x="295" y="280" width="90" height="30" as="geometry" />
        </mxCell>
        <mxCell id="E1bleXBWYbin3MfH68Ox-22" value="x N" style="text;html=1;align=center;verticalAlign=middle;resizable=0;points=[];autosize=1;strokeColor=none;fillColor=none;fontStyle=1;rotation=0;fontSize=14;" vertex="1" parent="1">
          <mxGeometry x="410" y="270" width="50" height="30" as="geometry" />
        </mxCell>
        <mxCell id="E1bleXBWYbin3MfH68Ox-24" value="" style="shape=flexArrow;endArrow=classic;html=1;rounded=0;" edge="1" parent="1">
          <mxGeometry width="50" height="50" relative="1" as="geometry">
            <mxPoint x="90" y="160" as="sourcePoint" />
            <mxPoint x="90" y="380" as="targetPoint" />
          </mxGeometry>
        </mxCell>
        <mxCell id="E1bleXBWYbin3MfH68Ox-25" value="Story" style="text;html=1;align=center;verticalAlign=middle;resizable=0;points=[];autosize=1;strokeColor=none;fillColor=none;fontStyle=1;rotation=-90;fontSize=34;" vertex="1" parent="1">
          <mxGeometry x="-10" y="240" width="110" height="50" as="geometry" />
        </mxCell>
        <mxCell id="E1bleXBWYbin3MfH68Ox-26" value="&lt;b&gt;&lt;font style=&quot;font-size: 15px;&quot;&gt;Feature 2.1&lt;/font&gt;&lt;/b&gt;" style="rounded=1;whiteSpace=wrap;html=1;" vertex="1" parent="1">
          <mxGeometry x="740" y="180" width="120" height="60" as="geometry" />
        </mxCell>
        <mxCell id="E1bleXBWYbin3MfH68Ox-27" value="&lt;b&gt;&lt;font style=&quot;font-size: 15px;&quot;&gt;Feature 2.2&lt;/font&gt;&lt;/b&gt;" style="rounded=1;whiteSpace=wrap;html=1;" vertex="1" parent="1">
          <mxGeometry x="740" y="275" width="120" height="60" as="geometry" />
        </mxCell>
        <mxCell id="E1bleXBWYbin3MfH68Ox-28" value="&lt;b&gt;&lt;font style=&quot;font-size: 15px;&quot;&gt;Feature 2.3&lt;/font&gt;&lt;/b&gt;" style="rounded=1;whiteSpace=wrap;html=1;" vertex="1" parent="1">
          <mxGeometry x="740" y="370" width="120" height="60" as="geometry" />
        </mxCell>
        <mxCell id="E1bleXBWYbin3MfH68Ox-38" value="" style="group;rotation=-90;" vertex="1" connectable="0" parent="1">
          <mxGeometry x="840" y="210" width="70" height="20" as="geometry" />
        </mxCell>
        <mxCell id="E1bleXBWYbin3MfH68Ox-32" value="" style="endArrow=none;html=1;rounded=0;entryX=0.5;entryY=1;entryDx=0;entryDy=0;exitX=0.25;exitY=0;exitDx=0;exitDy=0;" edge="1" parent="E1bleXBWYbin3MfH68Ox-38">
          <mxGeometry width="50" height="50" relative="1" as="geometry">
            <mxPoint x="50.55555555555556" y="22.5" as="sourcePoint" />
            <mxPoint x="19.444444444444446" as="targetPoint" />
          </mxGeometry>
        </mxCell>
        <mxCell id="E1bleXBWYbin3MfH68Ox-33" value="" style="endArrow=none;html=1;rounded=0;exitX=0.5;exitY=0;exitDx=0;exitDy=0;entryX=0.5;entryY=1;entryDx=0;entryDy=0;" edge="1" parent="E1bleXBWYbin3MfH68Ox-38">
          <mxGeometry width="50" height="50" relative="1" as="geometry">
            <mxPoint x="50.55555555555556" as="sourcePoint" />
            <mxPoint x="19.444444444444446" as="targetPoint" />
          </mxGeometry>
        </mxCell>
        <mxCell id="E1bleXBWYbin3MfH68Ox-34" value="" style="endArrow=none;html=1;rounded=0;entryX=0.5;entryY=1;entryDx=0;entryDy=0;exitX=0.75;exitY=0;exitDx=0;exitDy=0;" edge="1" parent="E1bleXBWYbin3MfH68Ox-38">
          <mxGeometry width="50" height="50" relative="1" as="geometry">
            <mxPoint x="50.55555555555556" y="-22.5" as="sourcePoint" />
            <mxPoint x="19.444444444444446" as="targetPoint" />
          </mxGeometry>
        </mxCell>
        <mxCell id="E1bleXBWYbin3MfH68Ox-35" value="" style="endArrow=none;html=1;rounded=0;entryX=0.5;entryY=1;entryDx=0;entryDy=0;exitX=0.25;exitY=0;exitDx=0;exitDy=0;" edge="1" parent="E1bleXBWYbin3MfH68Ox-38">
          <mxGeometry width="50" height="50" relative="1" as="geometry">
            <mxPoint x="50.55555555555556" y="22.5" as="sourcePoint" />
            <mxPoint x="19.444444444444446" as="targetPoint" />
          </mxGeometry>
        </mxCell>
        <mxCell id="E1bleXBWYbin3MfH68Ox-36" value="" style="endArrow=none;html=1;rounded=0;exitX=0.5;exitY=0;exitDx=0;exitDy=0;entryX=0.5;entryY=1;entryDx=0;entryDy=0;" edge="1" parent="E1bleXBWYbin3MfH68Ox-38">
          <mxGeometry width="50" height="50" relative="1" as="geometry">
            <mxPoint x="50.55555555555556" as="sourcePoint" />
            <mxPoint x="19.444444444444446" as="targetPoint" />
          </mxGeometry>
        </mxCell>
        <mxCell id="E1bleXBWYbin3MfH68Ox-37" value="" style="endArrow=none;html=1;rounded=0;entryX=0.5;entryY=1;entryDx=0;entryDy=0;exitX=0.75;exitY=0;exitDx=0;exitDy=0;" edge="1" parent="E1bleXBWYbin3MfH68Ox-38">
          <mxGeometry width="50" height="50" relative="1" as="geometry">
            <mxPoint x="50.55555555555556" y="-22.5" as="sourcePoint" />
            <mxPoint x="19.444444444444446" as="targetPoint" />
          </mxGeometry>
        </mxCell>
        <mxCell id="E1bleXBWYbin3MfH68Ox-46" value="" style="group;rotation=-90;" vertex="1" connectable="0" parent="1">
          <mxGeometry x="840" y="310" width="70" height="20" as="geometry" />
        </mxCell>
        <mxCell id="E1bleXBWYbin3MfH68Ox-47" value="" style="endArrow=none;html=1;rounded=0;entryX=0.5;entryY=1;entryDx=0;entryDy=0;exitX=0.25;exitY=0;exitDx=0;exitDy=0;" edge="1" parent="E1bleXBWYbin3MfH68Ox-46">
          <mxGeometry width="50" height="50" relative="1" as="geometry">
            <mxPoint x="50.55555555555556" y="22.5" as="sourcePoint" />
            <mxPoint x="19.444444444444446" as="targetPoint" />
          </mxGeometry>
        </mxCell>
        <mxCell id="E1bleXBWYbin3MfH68Ox-48" value="" style="endArrow=none;html=1;rounded=0;exitX=0.5;exitY=0;exitDx=0;exitDy=0;entryX=0.5;entryY=1;entryDx=0;entryDy=0;" edge="1" parent="E1bleXBWYbin3MfH68Ox-46">
          <mxGeometry width="50" height="50" relative="1" as="geometry">
            <mxPoint x="50.55555555555556" as="sourcePoint" />
            <mxPoint x="19.444444444444446" as="targetPoint" />
          </mxGeometry>
        </mxCell>
        <mxCell id="E1bleXBWYbin3MfH68Ox-49" value="" style="endArrow=none;html=1;rounded=0;entryX=0.5;entryY=1;entryDx=0;entryDy=0;exitX=0.75;exitY=0;exitDx=0;exitDy=0;" edge="1" parent="E1bleXBWYbin3MfH68Ox-46">
          <mxGeometry width="50" height="50" relative="1" as="geometry">
            <mxPoint x="50.55555555555556" y="-22.5" as="sourcePoint" />
            <mxPoint x="19.444444444444446" as="targetPoint" />
          </mxGeometry>
        </mxCell>
        <mxCell id="E1bleXBWYbin3MfH68Ox-50" value="" style="endArrow=none;html=1;rounded=0;entryX=0.5;entryY=1;entryDx=0;entryDy=0;exitX=0.25;exitY=0;exitDx=0;exitDy=0;" edge="1" parent="E1bleXBWYbin3MfH68Ox-46">
          <mxGeometry width="50" height="50" relative="1" as="geometry">
            <mxPoint x="50.55555555555556" y="22.5" as="sourcePoint" />
            <mxPoint x="19.444444444444446" as="targetPoint" />
          </mxGeometry>
        </mxCell>
        <mxCell id="E1bleXBWYbin3MfH68Ox-51" value="" style="endArrow=none;html=1;rounded=0;exitX=0.5;exitY=0;exitDx=0;exitDy=0;entryX=0.5;entryY=1;entryDx=0;entryDy=0;" edge="1" parent="E1bleXBWYbin3MfH68Ox-46">
          <mxGeometry width="50" height="50" relative="1" as="geometry">
            <mxPoint x="50.55555555555556" as="sourcePoint" />
            <mxPoint x="19.444444444444446" as="targetPoint" />
          </mxGeometry>
        </mxCell>
        <mxCell id="E1bleXBWYbin3MfH68Ox-52" value="" style="endArrow=none;html=1;rounded=0;entryX=0.5;entryY=1;entryDx=0;entryDy=0;exitX=0.75;exitY=0;exitDx=0;exitDy=0;" edge="1" parent="E1bleXBWYbin3MfH68Ox-46">
          <mxGeometry width="50" height="50" relative="1" as="geometry">
            <mxPoint x="50.55555555555556" y="-22.5" as="sourcePoint" />
            <mxPoint x="19.444444444444446" as="targetPoint" />
          </mxGeometry>
        </mxCell>
        <mxCell id="E1bleXBWYbin3MfH68Ox-53" value="" style="group;rotation=-90;" vertex="1" connectable="0" parent="1">
          <mxGeometry x="840" y="400" width="70" height="20" as="geometry" />
        </mxCell>
        <mxCell id="E1bleXBWYbin3MfH68Ox-54" value="" style="endArrow=none;html=1;rounded=0;entryX=0.5;entryY=1;entryDx=0;entryDy=0;exitX=0.25;exitY=0;exitDx=0;exitDy=0;" edge="1" parent="E1bleXBWYbin3MfH68Ox-53">
          <mxGeometry width="50" height="50" relative="1" as="geometry">
            <mxPoint x="50.55555555555556" y="22.5" as="sourcePoint" />
            <mxPoint x="19.444444444444446" as="targetPoint" />
          </mxGeometry>
        </mxCell>
        <mxCell id="E1bleXBWYbin3MfH68Ox-55" value="" style="endArrow=none;html=1;rounded=0;exitX=0.5;exitY=0;exitDx=0;exitDy=0;entryX=0.5;entryY=1;entryDx=0;entryDy=0;" edge="1" parent="E1bleXBWYbin3MfH68Ox-53">
          <mxGeometry width="50" height="50" relative="1" as="geometry">
            <mxPoint x="50.55555555555556" as="sourcePoint" />
            <mxPoint x="19.444444444444446" as="targetPoint" />
          </mxGeometry>
        </mxCell>
        <mxCell id="E1bleXBWYbin3MfH68Ox-56" value="" style="endArrow=none;html=1;rounded=0;entryX=0.5;entryY=1;entryDx=0;entryDy=0;exitX=0.75;exitY=0;exitDx=0;exitDy=0;" edge="1" parent="E1bleXBWYbin3MfH68Ox-53">
          <mxGeometry width="50" height="50" relative="1" as="geometry">
            <mxPoint x="50.55555555555556" y="-22.5" as="sourcePoint" />
            <mxPoint x="19.444444444444446" as="targetPoint" />
          </mxGeometry>
        </mxCell>
        <mxCell id="E1bleXBWYbin3MfH68Ox-57" value="" style="endArrow=none;html=1;rounded=0;entryX=0.5;entryY=1;entryDx=0;entryDy=0;exitX=0.25;exitY=0;exitDx=0;exitDy=0;" edge="1" parent="E1bleXBWYbin3MfH68Ox-53">
          <mxGeometry width="50" height="50" relative="1" as="geometry">
            <mxPoint x="50.55555555555556" y="22.5" as="sourcePoint" />
            <mxPoint x="19.444444444444446" as="targetPoint" />
          </mxGeometry>
        </mxCell>
        <mxCell id="E1bleXBWYbin3MfH68Ox-58" value="" style="endArrow=none;html=1;rounded=0;exitX=0.5;exitY=0;exitDx=0;exitDy=0;entryX=0.5;entryY=1;entryDx=0;entryDy=0;" edge="1" parent="E1bleXBWYbin3MfH68Ox-53">
          <mxGeometry width="50" height="50" relative="1" as="geometry">
            <mxPoint x="50.55555555555556" as="sourcePoint" />
            <mxPoint x="19.444444444444446" as="targetPoint" />
          </mxGeometry>
        </mxCell>
        <mxCell id="E1bleXBWYbin3MfH68Ox-59" value="" style="endArrow=none;html=1;rounded=0;entryX=0.5;entryY=1;entryDx=0;entryDy=0;exitX=0.75;exitY=0;exitDx=0;exitDy=0;" edge="1" parent="E1bleXBWYbin3MfH68Ox-53">
          <mxGeometry width="50" height="50" relative="1" as="geometry">
            <mxPoint x="50.55555555555556" y="-22.5" as="sourcePoint" />
            <mxPoint x="19.444444444444446" as="targetPoint" />
          </mxGeometry>
        </mxCell>
        <mxCell id="E1bleXBWYbin3MfH68Ox-63" value="Story builder" style="text;html=1;align=center;verticalAlign=middle;resizable=0;points=[];autosize=1;strokeColor=none;fillColor=none;fontSize=17;fontStyle=1" vertex="1" parent="1">
          <mxGeometry x="520" y="170" width="130" height="30" as="geometry" />
        </mxCell>
      </root>
    </mxGraphModel>
  </diagram>
</mxfile>
